HIERARCHY
ROOT Hips
{
  OFFSET -69.4423 88.0299 51.6846
  CHANNELS 6 Xposition Yposition Zposition Zrotation Xrotation Yrotation
  JOINT Spine
  {
    OFFSET 12.0259 -0.162853 1.93176e-005
    CHANNELS 3 Zrotation Xrotation Yrotation
    JOINT Spine1
    {
      OFFSET 15.3169 -0.0121909 0
      CHANNELS 3 Zrotation Xrotation Yrotation
      JOINT Spine2
      {
        OFFSET 15.3176 -0.0121922 0
        CHANNELS 3 Zrotation Xrotation Yrotation
        JOINT Neck
        {
          OFFSET 19.9142 1.56236 0
          CHANNELS 3 Zrotation Xrotation Yrotation
          JOINT Head
          {
            OFFSET 6.92646 0 0
            CHANNELS 3 Zrotation Xrotation Yrotation
            End Site
            {
              OFFSET 20.7666 0 0
            }
          }
          JOINT LeftShoulder
          {
            OFFSET -4.94072 -1.14703 8.14416
            CHANNELS 3 Zrotation Xrotation Yrotation
            JOINT LeftArm
            {
              OFFSET 14.108 0 -2.74767e-005
              CHANNELS 3 Zrotation Xrotation Yrotation
              JOINT LeftForeArm
              {
                OFFSET 28.5802 -0.0783412 -0.0284884
                CHANNELS 3 Zrotation Xrotation Yrotation
                JOINT LeftHand
                {
                  OFFSET 27.092 0 0
                  CHANNELS 3 Zrotation Xrotation Yrotation
                  End Site
                  {
                    OFFSET 9.55928 -0.186424 0.145352
                  }
                }
              }
            }
          }
          JOINT RightShoulder
          {
            OFFSET -7.15748 -1.33027 -6.24935
            CHANNELS 3 Zrotation Xrotation Yrotation
            JOINT RightArm
            {
              OFFSET 14.108 0 1.82997e-005
              CHANNELS 3 Zrotation Xrotation Yrotation
              JOINT RightForeArm
              {
                OFFSET 28.5802 -0.0707221 2.30684e-005
                CHANNELS 3 Zrotation Xrotation Yrotation
                JOINT RightHand
                {
                  OFFSET 27.092 0 -1.30073e-005
                  CHANNELS 3 Zrotation Xrotation Yrotation
                  End Site
                  {
                    OFFSET 9.55929 -0.186417 -0.145354
                  }
                }
              }
            }
          }
        }
      }
    }
  }
  JOINT LeftUpLeg
  {
    OFFSET 0.00499725 -0.534999 8.837
    CHANNELS 3 Zrotation Xrotation Yrotation
    JOINT LeftLeg
    {
      OFFSET 39.9035 -0.00124594 0.000252775
      CHANNELS 3 Zrotation Xrotation Yrotation
      JOINT LeftFoot
      {
        OFFSET 39.6689 0 0
        CHANNELS 3 Zrotation Xrotation Yrotation
        JOINT LeftToe
        {
          OFFSET 10.1624 13.6296 0
          CHANNELS 3 Zrotation Xrotation Yrotation
          End Site
          {
            OFFSET 8.38147 0 0
          }
        }
      }
    }
  }
  JOINT RightUpLeg
  {
    OFFSET 0.00499725 -0.535 -8.837
    CHANNELS 3 Zrotation Xrotation Yrotation
    JOINT RightLeg
    {
      OFFSET 39.9036 -0.000268477 0.000106433
      CHANNELS 3 Zrotation Xrotation Yrotation
      JOINT RightFoot
      {
        OFFSET 39.6689 1.17892e-005 0
        CHANNELS 3 Zrotation Xrotation Yrotation
        JOINT RightToe
        {
          OFFSET 10.1624 13.6296 0
          CHANNELS 3 Zrotation Xrotation Yrotation
          End Site
          {
            OFFSET 8.38147 0 0
          }
        }
      }
    }
  }
}
MOTION
Frames:	11
Frame Time:	0.0333333
47.1645 88.631 17.4909 -55.7663 -84.6037 -150.502 1.35673 1.40641 0.859885 2.6934 2.83311 1.68713 2.69339 2.83311 1.68711 -14.0095 -0.0329032 -12.4332 51.4841 -1.25038 13.2704 -167.739 -1.99737 -95.5047 -13.4383 4.65183 82.1395 -18.7193 1.73562 -12.4099 8.68651 -82.2003 11.1141 -167.763 -4.26435 72.6624 -15.5999 0.0985991 -80.4726 -29.9467 -4.44232 17.8736 5.05078 85.8684 -5.00261 -23.7081 -3.54127 -174.231 -28.3098 0.818524 -1.27202 -12.2367 12.889 3.88555 90 1.43125e-014 6.36111e-015 15.4883 -5.00898 -175.607 -22.8061 -0.813396 -0.0332302 -0.333016 4.32433 0.42018 90 7.95139e-015 7.95139e-015 
47.1014 88.2369 20.5402 -55.4123 -83.0935 -149.4 1.66627 1.54183 0.714602 3.31499 3.10417 1.38491 3.31499 3.10416 1.38491 -13.684 -0.0745171 -12.2863 50.8651 -1.15984 13.2572 -168.062 -1.96569 -95.3633 -11.5425 4.59995 82.7732 -18.7976 1.76368 -12.4633 8.41926 -82.1028 10.8842 -168.042 -4.23458 72.8015 -17.2108 1.08408 -79.3555 -30.8768 -4.70535 18.3694 4.39294 85.4894 -4.38643 -24.1776 -4.86681 -174.798 -28.3557 0.81322 -1.25792 -12.2873 12.5026 3.71993 90 8.74653e-015 -1.59028e-014 15.4764 -4.95253 -176.323 -21.6101 -0.830037 0.0351149 3.1967 5.36669 0.0384279 90 -1.27222e-014 -6.36111e-015 
46.8884 88.2883 23.0196 -53.814 -81.6099 -147.514 1.89958 1.49926 0.699354 3.78256 3.02139 1.35298 3.78255 3.02139 1.35298 -13.3897 0.221169 -12.3095 51.1642 -0.616344 13.2444 -168.319 -1.69839 -95.4486 -10.6567 5.42667 83.7317 -18.8575 1.77989 -12.496 8.45408 -83.2947 11.0585 -168.229 -3.86682 72.689 -17.1658 2.26217 -78.6938 -30.8996 -4.71412 18.3844 3.48989 84.5561 -3.46793 -23.9212 -6.27165 -175.198 -29.8029 0.831426 -1.18713 -10.4677 12.8672 3.48067 90 -1.27222e-014 -9.54166e-015 14.9617 -4.79573 -176.782 -21.4473 -0.826526 0.0674419 4.61964 5.91596 -0.136769 90 1.11319e-014 -0 
46.3587 88.5411 25.4494 -56.69 -80.7269 -150.265 1.88964 1.37911 0.721606 3.76343 2.78165 1.39808 3.76342 2.78165 1.39806 -13.6776 -2.84322 -11.8221 51.8143 1.5664 10.0033 -168.592 -4.50215 -94.3192 -10.437 5.97185 84.4429 -18.1264 1.67586 -12.1046 7.90739 -82.7523 10.4768 -168.465 -6.58994 73.7658 -17.2838 2.89233 -78.4886 -30.6966 -4.68712 18.3386 4.9215 85.4114 -4.99226 -24.8252 -6.81003 -175.819 -34.1335 0.827567 -1.01897 -7.15647 13.7811 3.02788 90 -3.97569e-015 3.18055e-015 12.7265 -4.91825 -177.241 -22.6786 -0.816759 0.062307 4.93377 6.14055 -0.175664 90 6.36111e-015 -6.36111e-015 
45.7556 89.0525 27.6477 -58.615 -79.3494 -152.435 1.91737 1.26358 0.82939 3.81769 2.55458 1.61676 3.8177 2.55458 1.61674 -13.7021 -2.83907 -11.7725 52.7053 1.75041 9.85418 -168.569 -4.51915 -94.2212 -9.27109 6.11909 85.2161 -17.1932 1.55273 -11.6263 6.32122 -80.4975 8.66113 -168.434 -6.54976 73.7601 -16.359 3.44198 -78.4828 -30.2361 -4.5549 18.1081 4.01767 84.8878 -4.11083 -24.8535 -6.74043 -176.042 -39.5178 0.793865 -0.816971 -4.61153 12.8065 2.28039 90 1.19271e-014 1.90833e-014 10.5148 -4.79862 -177.646 -24.2786 -0.799739 0.0362397 4.3528 5.23762 -0.158999 90 0 -0 
45.0652 89.6723 29.5708 -59.9937 -77.851 -153.972 1.96104 1.10608 0.954418 3.90452 2.24447 1.8711 3.90449 2.24447 1.87108 -13.7726 -2.79707 -11.7808 53.2498 1.8067 9.66856 -168.493 -4.49308 -94.1834 -9.10165 5.94519 86.2767 -16.791 1.50953 -11.4529 6.0439 -80.0562 8.45586 -168.36 -6.48468 73.7208 -15.792 3.15616 -78.3812 -30.002 -4.49074 17.9839 4.56612 85.5729 -4.62433 -24.1898 -6.67755 -176.353 -44.8715 0.766437 -0.604652 -3.46382 12.3084 1.87059 90 7.95139e-015 3.18055e-015 8.63021 -4.58791 -178.352 -25.3961 -0.781608 0.0167161 2.93519 3.54581 -0.124977 90 1.59028e-015 -3.18055e-015 
44.3118 90.1786 31.421 -62.1637 -75.9875 -156.16 2.01887 0.962196 1.00758 4.02141 1.95966 1.9812 4.0214 1.95965 1.98118 -13.5458 -3.0477 -11.8203 52.6149 1.6096 10.5094 -168.771 -4.74302 -94.1726 -9.52279 5.76669 87.2459 -16.679 1.50083 -11.437 6.40026 -80.4057 8.84927 -168.625 -6.71057 73.6771 -15.711 2.62906 -78.2205 -29.7113 -4.40457 17.8248 4.69086 85.9099 -4.7221 -23.0353 -6.78947 -176.699 -49.6456 0.755414 -0.40082 -3.51242 13.5838 1.89802 90 7.95139e-015 1.59028e-014 6.84605 -4.11263 -179.268 -26.1961 -0.765904 0.0160129 1.50952 1.68865 -0.197802 90 1.27222e-014 1.27222e-014 
43.6844 90.6765 33.2472 -64.924 -73.82 -159.396 2.03963 0.822205 1.14878 4.06305 1.68518 2.26808 4.06303 1.68518 2.26806 -13.2573 -3.04867 -11.7408 51.9795 1.54331 10.6766 -169.061 -4.67164 -94.1562 -11.8489 5.77865 88.1479 -17.1671 1.55806 -11.7415 6.99845 -81.4313 9.45612 -168.889 -6.62292 73.6791 -15.6551 2.27329 -77.9947 -29.0567 -4.22385 17.4803 4.22848 85.558 -4.215 -21.429 -6.93745 -176.16 -53.913 0.756647 -0.219511 -5.39465 16.8722 2.59435 90 3.18055e-015 3.18055e-015 5.18942 -3.20212 -179.449 -26.3695 -0.756073 0.0345378 -0.0730914 0.142374 -0.293829 90 -7.15625e-015 -9.54166e-015 
42.673 90.7921 35.054 -67.8149 -71.5649 -162.054 1.99545 0.65994 1.09865 3.9783 1.35806 2.17404 3.9783 1.35805 2.17404 -12.6698 -3.0274 -11.596 51.4713 1.84771 10.9493 -169.651 -4.50454 -94.1433 -15.5557 6.02446 88.6319 -18.4076 1.7197 -12.4169 6.33779 -82.0886 9.24496 -169.436 -6.46508 73.7734 -15.0831 1.80019 -78.118 -28.3916 -4.04642 17.132 3.50113 84.5436 -3.47524 -18.9976 -7.04505 -176.57 -56.5825 0.801025 -0.0704871 -7.82022 19.076 3.42853 90 1.90833e-014 -0 2.682 -2.46915 179.45 -27.738 -0.732199 0.0469946 -0.736078 -1.75477 -0.603347 90 1.66979e-014 3.18055e-015 
41.6246 90.9855 36.8444 -70.6029 -69.3688 -164.962 1.97052 0.442617 1.10842 3.93231 0.923495 2.20122 3.93232 0.923495 2.2012 -13.0845 -2.97074 -11.5305 52.2101 2.08151 11.1654 -169.232 -4.46919 -94.1114 -18.853 5.76223 88.601 -19.4414 1.84181 -12.9885 8.80742 -84.261 11.5584 -169.009 -6.48092 73.8666 -15.5819 1.3223 -78.1169 -27.7521 -3.89043 16.8122 4.70461 85.2082 -4.67286 -16.506 -7.79932 -176.582 -57.9226 0.867065 0.0256821 -13.556 21.2084 5.48927 90 -1.27222e-014 -6.36111e-015 0.463755 -1.76836 178.963 -28.1433 -0.71913 0.085674 -1.5431 -3.34054 -0.888695 90 -6.36111e-015 6.36111e-015 
40.3493 90.9329 38.6704 -73.5687 -66.7082 -167.514 1.8344 0.273023 1.02632 3.66371 0.579198 2.04357 3.66372 0.579198 2.04357 -12.9437 -2.73782 -11.3201 52.9772 2.49552 10.6311 -169.315 -4.0865 -94.0356 -20.8846 5.54231 88.4499 -20.6633 2.01711 -13.6443 7.01004 -84.675 10.0314 -169.101 -6.16532 74.0268 -15.6989 0.575347 -78.2092 -27.0695 -3.71329 16.4526 4.83931 85.2598 -4.77876 -13.3583 -8.38544 -177.241 -56.9799 0.956908 0.0710231 -22.3194 22.0172 8.68008 90 1.59028e-014 3.18055e-015 -2.58367 -0.698012 177.992 -29.2952 -0.693307 0.133893 -2.19881 -4.96888 -1.24131 90 -7.95139e-016 -1.59028e-014 
